<?xml version="1.0" standalone="no"?>
<!DOCTYPE svg PUBLIC "-//W3C//DTD SVG 20010904//EN"
 "http://www.w3.org/TR/2001/REC-SVG-20010904/DTD/svg10.dtd">
<svg version="1.0" xmlns="http://www.w3.org/2000/svg"
 width="864.000000pt" height="864.000000pt" viewBox="0 0 864.000000 864.000000"
 preserveAspectRatio="xMidYMid meet">
<metadata>
Created by potrace 1.14, written by Peter Selinger 2001-2017
</metadata>
<g transform="translate(0.000000,864.000000) scale(0.100000,-0.100000)"
fill="#000000" stroke="none">
<path d="M4427 8434 c-1 -1 -49 -4 -105 -8 -57 -4 -120 -9 -140 -11 -91 -10
-149 -17 -167 -20 -56 -8 -103 -16 -125 -20 -14 -3 -38 -7 -55 -10 -47 -7 -82
-14 -190 -41 -55 -14 -107 -26 -115 -28 -53 -13 -118 -32 -210 -63 -58 -19
-109 -36 -115 -37 -5 -2 -21 -7 -35 -13 -14 -6 -56 -23 -95 -38 -105 -42 -127
-52 -295 -133 -85 -41 -157 -77 -160 -81 -4 -6 -35 -22 -50 -25 -3 -1 -23 -13
-45 -27 -22 -14 -66 -41 -97 -60 -32 -19 -58 -37 -58 -42 0 -4 55 -43 123 -86
67 -44 127 -84 134 -90 7 -6 14 -11 17 -11 5 0 272 -172 291 -187 19 -15 95
-63 100 -63 2 0 13 -7 22 -15 10 -8 81 -55 158 -104 77 -49 145 -94 152 -100
7 -6 14 -11 17 -11 2 0 38 -22 79 -49 l75 -50 76 29 c42 15 76 26 76 24 0 -3
12 2 28 9 66 34 402 105 577 122 123 13 157 14 295 14 160 0 191 -2 207 -12 6
-4 14 -3 18 3 4 6 9 8 13 6 4 -2 34 -7 67 -11 33 -4 72 -8 87 -10 30 -4 101
-15 133 -21 11 -3 36 -7 55 -10 19 -3 43 -7 52 -10 9 -3 25 -7 35 -9 105 -21
315 -90 448 -147 50 -21 96 -38 103 -38 6 0 12 -4 12 -10 0 -5 5 -10 11 -10
17 0 161 -75 250 -130 44 -27 83 -50 85 -50 3 0 10 -4 17 -10 41 -34 109 -80
116 -80 5 0 11 -3 13 -7 2 -5 48 -44 103 -88 95 -76 267 -241 366 -351 62 -70
176 -223 237 -319 28 -44 59 -90 69 -103 l18 -23 50 27 c28 16 52 32 53 36 2
4 8 8 13 8 7 0 320 176 389 220 8 5 38 21 65 36 28 15 61 35 74 45 13 11 29
19 37 19 7 0 14 3 16 8 2 4 17 14 33 23 78 42 100 54 105 59 5 5 19 13 99 58
25 14 63 36 84 49 37 23 38 25 22 46 -9 12 -21 34 -28 50 -6 15 -15 27 -19 27
-4 0 -8 4 -8 9 0 16 -152 237 -242 352 -122 156 -177 218 -338 379 -174 175
-214 211 -361 326 -63 49 -115 92 -117 97 -2 4 -8 7 -14 7 -6 0 -24 11 -42 25
-17 14 -35 29 -41 33 -16 12 -177 116 -196 127 -10 6 -48 28 -86 49 -37 22
-115 64 -173 94 -58 30 -109 58 -114 63 -6 5 -15 9 -22 9 -7 0 -52 19 -101 41
-75 36 -297 122 -343 134 -8 2 -44 13 -80 25 -36 12 -72 23 -80 25 -8 2 -42
11 -75 20 -109 30 -309 72 -395 85 -47 6 -96 14 -110 18 -14 3 -43 6 -65 7
-22 2 -60 5 -85 9 -92 12 -220 18 -398 20 -100 1 -184 1 -185 0z"/>
<path d="M1857 7363 c3 -10 15 -38 26 -63 11 -24 20 -49 21 -55 2 -5 10 -27
19 -49 9 -21 17 -40 17 -42 0 -1 5 -15 12 -31 6 -15 12 -30 13 -33 1 -3 5 -14
10 -25 5 -11 55 -139 112 -285 57 -146 108 -274 113 -285 5 -11 59 -148 121
-305 61 -157 119 -304 130 -327 10 -24 19 -47 19 -53 0 -6 4 -18 9 -28 16 -29
48 -106 56 -132 4 -14 13 -38 20 -55 8 -16 30 -73 50 -125 21 -52 43 -108 50
-125 7 -16 41 -102 75 -190 34 -88 65 -169 70 -180 5 -11 32 -78 60 -150 28
-71 55 -138 60 -147 6 -10 10 -22 10 -28 0 -6 9 -29 19 -53 20 -44 32 -75 37
-92 1 -5 19 -49 38 -97 l36 -88 -86 -217 c-123 -313 -175 -444 -189 -478 -7
-16 -27 -68 -45 -115 -18 -47 -41 -104 -51 -127 -11 -24 -19 -46 -19 -51 0 -5
-9 -27 -20 -50 -11 -22 -20 -48 -20 -56 0 -8 -4 -17 -9 -20 -5 -3 -11 -16 -15
-29 -3 -13 -13 -41 -23 -63 -9 -21 -17 -41 -18 -44 -1 -7 -104 -267 -120 -305
-21 -47 -46 -119 -47 -132 -1 -7 -4 -13 -8 -13 -7 0 -35 -80 -32 -92 1 -5 -3
-8 -8 -8 -6 0 -10 -7 -10 -15 0 -8 -4 -23 -9 -33 -5 -9 -30 -71 -56 -137 -26
-66 -53 -134 -61 -152 -8 -17 -14 -38 -14 -47 0 -9 -4 -16 -8 -16 -5 0 -9 -6
-9 -12 -1 -14 -197 -513 -213 -540 -6 -10 -10 -26 -10 -36 0 -10 -5 -23 -12
-30 -6 -6 -13 -17 -14 -24 -3 -16 -46 -128 -68 -180 -9 -21 -14 -38 -10 -38 9
0 68 43 72 52 2 4 8 8 13 8 12 0 91 51 101 65 5 7 8 7 8 0 0 -5 5 -2 11 7 5
10 14 18 19 18 6 0 39 20 76 45 36 25 69 45 75 45 5 0 9 5 9 10 0 6 4 10 9 10
5 0 40 20 78 45 81 54 75 50 183 120 47 30 90 58 95 62 34 27 156 103 165 103
5 0 10 5 10 10 0 6 4 10 10 10 5 0 32 16 59 35 26 19 52 35 55 35 4 0 14 6 21
13 30 26 44 37 49 37 5 0 204 128 231 148 38 28 101 66 108 64 4 -1 7 2 7 7 0
5 14 14 30 21 17 7 30 16 30 20 0 4 10 12 23 19 12 6 36 20 52 31 17 11 40 25
53 31 12 7 22 16 22 21 0 4 5 8 10 8 6 0 78 45 161 100 83 55 153 100 155 100
3 0 10 5 17 10 10 9 114 77 197 130 8 5 46 30 83 55 38 25 71 45 73 45 3 0 10
5 17 11 7 6 64 44 127 84 63 41 120 78 125 82 20 16 95 63 100 63 3 0 11 5 18
11 7 6 68 47 137 91 69 45 127 85 128 90 2 4 8 8 14 8 6 0 74 42 152 93 77 51
189 124 249 162 109 71 336 219 507 330 325 212 392 255 400 255 4 0 10 4 12
8 2 5 35 29 73 53 39 24 75 48 82 54 6 5 50 34 97 64 47 29 86 57 86 62 0 5
-11 15 -25 21 -14 6 -25 15 -25 20 0 4 -4 8 -10 8 -11 0 -162 99 -171 113 -3
5 -10 9 -15 9 -13 1 -88 49 -96 62 -4 6 -8 7 -8 3 0 -4 -6 -3 -12 3 -12 9
-115 77 -368 241 -41 27 -82 53 -90 59 -8 5 -58 38 -110 71 -52 34 -138 90
-190 124 -52 34 -162 105 -243 158 -82 54 -152 97 -157 97 -4 0 -10 3 -12 8
-4 9 -96 72 -106 72 -5 0 -18 9 -30 20 -12 12 -22 17 -22 13 0 -4 -4 -3 -8 3
-4 5 -47 36 -97 69 -49 32 -109 71 -133 86 -24 16 -45 29 -48 29 -3 0 -16 8
-29 18 -59 45 -242 162 -253 162 -6 0 -12 4 -14 8 -4 11 -94 72 -106 72 -6 0
-12 3 -14 8 -5 11 -66 52 -78 52 -5 0 -10 5 -10 10 0 6 -5 10 -10 10 -12 0
-61 33 -97 64 -13 11 -23 17 -23 14 0 -3 -83 49 -185 116 -101 66 -253 165
-337 220 -230 149 -233 150 -236 159 -2 4 -8 7 -13 7 -4 0 -88 52 -186 116
-98 64 -203 133 -233 152 -30 20 -108 71 -173 114 -64 43 -121 78 -125 78 -4
0 -23 14 -42 30 -19 16 -38 30 -42 30 -6 0 -192 119 -213 137 -5 5 -46 31 -90
58 -44 27 -81 53 -83 57 -2 4 -8 8 -13 8 -5 0 -32 16 -59 35 -57 40 -62 42
-53 18z"/>
<path d="M1333 6828 c-28 -35 -70 -92 -94 -128 -24 -35 -52 -73 -61 -84 -10
-11 -18 -25 -18 -32 0 -7 -4 -14 -8 -16 -8 -3 -110 -165 -125 -198 -4 -8 -17
-31 -28 -50 -22 -36 -101 -190 -119 -232 -5 -13 -14 -30 -19 -38 -13 -20 -25
-53 -23 -62 1 -5 -3 -8 -8 -8 -6 0 -10 -9 -10 -20 0 -11 -4 -20 -8 -20 -5 0
-9 -6 -9 -12 0 -7 -10 -33 -21 -57 -12 -25 -22 -52 -22 -61 0 -9 -3 -20 -7
-24 -5 -4 -8 -11 -9 -14 0 -4 -8 -25 -18 -47 -9 -21 -18 -46 -20 -55 -2 -8 -8
-28 -14 -43 -7 -16 -12 -34 -12 -41 0 -6 -5 -17 -12 -24 -7 -7 -9 -12 -5 -12
4 0 1 -16 -7 -35 -8 -19 -13 -35 -11 -35 2 0 -5 -25 -15 -55 -10 -30 -17 -55
-15 -55 2 0 -2 -18 -10 -40 -8 -22 -14 -44 -14 -48 0 -4 -5 -27 -10 -52 -6
-25 -13 -56 -15 -70 -3 -14 -10 -50 -16 -80 -6 -30 -13 -77 -16 -105 -4 -27
-9 -54 -12 -59 -2 -5 -7 -29 -9 -55 -2 -25 -5 -64 -8 -86 -16 -144 -20 -240
-19 -475 0 -146 3 -296 8 -335 13 -125 17 -160 22 -185 3 -14 6 -41 8 -60 2
-19 9 -64 15 -100 7 -36 14 -74 16 -85 2 -11 8 -40 14 -65 5 -24 8 -46 6 -49
-3 -2 0 -10 6 -18 6 -7 9 -13 6 -13 -3 0 -1 -15 4 -32 6 -18 21 -73 34 -123
33 -123 102 -332 135 -410 5 -11 21 -49 36 -85 14 -36 37 -89 50 -118 13 -29
24 -56 24 -61 0 -5 7 -14 15 -21 8 -6 14 -15 13 -18 -8 -27 281 -522 304 -522
4 0 8 -6 8 -13 0 -8 11 -27 25 -43 14 -16 25 -32 25 -36 0 -4 6 -13 13 -20 6
-7 32 -39 56 -71 24 -32 47 -60 51 -62 4 -3 25 39 46 93 20 53 41 101 46 107
4 5 8 19 8 31 0 13 4 25 9 29 5 3 17 29 27 58 9 28 20 57 24 62 5 6 8 12 9 15
0 8 10 34 63 164 26 66 48 126 48 133 0 7 4 13 10 13 5 0 9 3 8 7 -2 5 37 107
84 228 48 121 87 222 86 225 -1 3 5 16 12 30 8 14 14 27 15 30 0 3 8 24 17 45
10 22 88 218 173 435 86 217 163 409 171 427 7 17 14 37 14 45 0 8 4 18 8 24
5 5 15 25 22 44 7 19 19 49 25 65 54 129 95 240 95 255 0 17 -185 495 -232
600 -11 25 -21 50 -23 55 -1 6 -7 21 -12 35 -6 14 -32 79 -57 145 -26 66 -51
130 -57 143 -5 12 -13 33 -19 47 -5 14 -14 35 -19 48 -10 23 -17 40 -96 242
-25 66 -55 140 -66 165 -10 25 -58 146 -107 270 -49 124 -92 234 -97 245 -5
11 -9 22 -10 25 -1 3 -7 18 -13 33 -7 16 -12 31 -12 34 0 3 -7 19 -15 36 -8
18 -28 68 -45 112 -17 44 -35 89 -39 100 -5 11 -28 68 -52 128 -23 59 -43 107
-45 107 -1 0 -24 -28 -51 -62z"/>
<path d="M7009 2730 c-51 -77 -96 -140 -101 -140 -4 0 -8 -6 -8 -14 0 -8 -3
-16 -8 -18 -4 -1 -23 -23 -42 -48 -97 -126 -292 -320 -440 -438 -63 -51 -120
-97 -127 -102 -7 -6 -16 -10 -22 -10 -5 0 -11 -4 -13 -8 -1 -5 -43 -34 -93
-65 -49 -31 -94 -60 -100 -64 -23 -19 -257 -134 -340 -168 -49 -20 -99 -40
-110 -45 -45 -20 -219 -74 -275 -85 -8 -2 -15 -4 -15 -5 0 -1 -11 -4 -25 -6
-14 -3 -41 -9 -60 -14 -19 -5 -48 -12 -65 -14 -16 -3 -41 -8 -55 -11 -14 -3
-45 -8 -70 -11 -25 -3 -54 -8 -65 -10 -133 -26 -644 -25 -780 2 -11 2 -36 6
-55 9 -19 3 -48 7 -65 9 -16 2 -42 9 -56 14 -15 6 -29 9 -32 6 -2 -2 -15 0
-29 5 -14 5 -39 12 -57 14 -29 5 -123 31 -161 45 -8 3 -19 6 -25 8 -5 1 -48
16 -94 32 l-85 30 -143 -94 c-79 -52 -148 -94 -153 -94 -4 0 -10 -3 -12 -8 -2
-6 -241 -165 -296 -197 -10 -5 -32 -20 -49 -32 -17 -13 -36 -23 -41 -23 -6 0
-12 -4 -14 -8 -1 -5 -34 -29 -73 -53 -38 -23 -72 -46 -75 -49 -3 -4 -12 -10
-20 -13 -36 -16 -284 -184 -287 -194 -2 -6 5 -14 16 -18 12 -3 27 -12 34 -18
12 -12 37 -27 87 -54 14 -8 39 -23 55 -33 68 -42 433 -220 495 -240 14 -5 57
-20 95 -35 186 -70 479 -155 620 -179 17 -3 57 -10 90 -16 118 -21 145 -25
325 -45 206 -24 637 -24 805 -1 17 2 62 7 100 10 39 4 77 8 85 11 8 2 32 6 53
9 20 3 54 9 75 12 50 8 249 51 290 63 17 5 32 8 32 6 0 -3 12 0 28 6 15 6 38
13 51 15 33 7 338 109 386 130 22 10 42 18 45 19 9 3 63 25 115 48 71 30 345
168 375 188 14 9 79 49 145 89 66 41 122 76 125 79 3 3 32 24 65 46 33 22 66
46 75 53 8 8 51 41 95 75 135 104 224 183 370 331 157 158 195 200 304 336 42
52 79 97 84 98 4 2 7 9 7 16 0 7 11 23 25 36 14 13 25 28 25 32 0 8 46 75 60
88 3 3 19 27 35 54 17 27 38 60 47 75 10 14 28 46 41 71 l24 44 -136 78 c-75
43 -143 83 -151 88 -8 6 -23 13 -32 16 -10 4 -18 10 -18 14 0 4 -8 10 -17 13
-10 3 -48 23 -85 44 -306 176 -413 239 -416 245 -2 5 -8 8 -13 8 -6 0 -48 23
-95 50 -47 28 -86 50 -89 50 -2 0 -45 -63 -96 -140z"/>
</g>
</svg>
