<svg width="20" height="20" viewBox="0 0 20 20" fill="none" xmlns="http://www.w3.org/2000/svg">
<path d="M9.42147 4.02148C9.42147 3.9806 9.42147 3.95419 9.42147 3.92778C9.42147 3.29771 9.42027 2.66763 9.42214 2.03756C9.42308 1.72159 9.66958 1.46607 9.97828 1.45427C10.3038 1.44194 10.5778 1.70443 10.5784 2.03327C10.5798 2.65664 10.5788 3.28001 10.5788 3.90338C10.5788 3.99347 10.5798 3.99454 10.6543 3.95017C11.0698 3.70229 11.4849 3.45348 11.9006 3.20588C12.2585 2.99272 12.698 3.18711 12.7787 3.59357C12.8264 3.8338 12.7123 4.0743 12.4844 4.21091C12.0579 4.46642 11.6308 4.72127 11.2041 4.97665C11.0147 5.09006 10.8261 5.20481 10.6358 5.31662C10.5943 5.34102 10.5779 5.3693 10.5779 5.4181C10.5791 6.51295 10.5787 7.60767 10.579 8.70252C10.579 8.77504 10.5851 8.77813 10.6489 8.74126C11.5654 8.21026 12.4804 7.67684 13.3999 7.15147C13.5081 7.08967 13.5475 7.02679 13.546 6.90346C13.542 6.5596 13.5524 6.21561 13.5587 5.87175C13.565 5.53017 13.5731 5.18859 13.5805 4.84701C13.5872 4.53493 13.8361 4.28424 14.1432 4.28035C14.4619 4.27633 14.7322 4.51736 14.7345 4.83119C14.7376 5.24195 14.7221 5.65283 14.7149 6.06372C14.7134 6.15086 14.7145 6.238 14.7114 6.325C14.7095 6.37876 14.7272 6.38077 14.7686 6.3565C15.0363 6.20019 15.3047 6.04522 15.573 5.88998C15.8567 5.7259 16.14 5.56087 16.4246 5.39839C16.6513 5.26903 16.9599 5.32815 17.1374 5.53205C17.3141 5.73501 17.3216 6.04335 17.1577 6.26347C17.0972 6.34484 17.0166 6.39846 16.9313 6.4478C16.3965 6.7568 15.8616 7.06567 15.3269 7.37481C15.3177 7.38017 15.3094 7.38701 15.2919 7.39948C15.3809 7.44975 15.4635 7.4964 15.5461 7.54278C15.9174 7.75151 16.2888 7.95984 16.6599 8.16883C16.9425 8.32809 17.04 8.67061 16.8867 8.96393C16.7507 9.22427 16.4008 9.33996 16.1281 9.19733C15.8003 9.02587 15.481 8.83805 15.1584 8.65681C14.8279 8.47127 14.4974 8.2856 14.1675 8.09886C14.1314 8.07834 14.1025 8.0821 14.0683 8.10194C13.185 8.61458 12.3014 9.12654 11.4179 9.63865C11.3503 9.67779 11.2837 9.71854 11.2148 9.75514C11.1683 9.77981 11.1718 9.79456 11.2152 9.81949C11.4358 9.94591 11.6551 10.0745 11.875 10.202C12.2648 10.4276 12.6548 10.6531 13.0447 10.8784C13.3805 11.0727 13.7168 11.2661 14.0518 11.4617C14.0933 11.486 14.1247 11.4876 14.1677 11.4633C14.8055 11.1011 15.4442 10.7401 16.0834 10.3803C16.3514 10.2294 16.7037 10.3329 16.8613 10.6056C17.019 10.8785 16.9242 11.2325 16.6424 11.3968C16.3535 11.5653 16.0604 11.7265 15.7692 11.891C15.6236 11.9731 15.4784 12.0561 15.3321 12.1371C15.29 12.1604 15.2837 12.1754 15.3304 12.2024C15.7692 12.4547 16.2074 12.7079 16.6454 12.9617C16.7766 13.0377 16.9095 13.1114 17.0361 13.1944C17.2262 13.3191 17.3147 13.5723 17.258 13.8037C17.2017 14.0332 17.0082 14.2057 16.7827 14.2363C16.6362 14.2561 16.5045 14.2229 16.3793 14.1504C15.8698 13.8553 15.3605 13.5602 14.8506 13.266C14.8228 13.2499 14.7922 13.2136 14.763 13.2299C14.7326 13.2469 14.7503 13.2916 14.7507 13.3238C14.7555 13.699 14.7603 14.0742 14.7684 14.4494C14.771 14.5744 14.7879 14.6996 14.7686 14.8239C14.7221 15.1235 14.4591 15.3466 14.1784 15.3286C13.8564 15.308 13.6201 15.0652 13.6135 14.7434C13.6055 14.3481 13.6018 13.9528 13.5943 13.5576C13.5881 13.2315 13.5781 12.9056 13.5725 12.5796C13.5717 12.5307 13.5464 12.5084 13.5097 12.4872C13.0173 12.203 12.5252 11.9182 12.0329 11.6337C11.5714 11.3672 11.1098 11.1008 10.6481 10.8346C10.5823 10.7966 10.5794 10.798 10.5794 10.8725C10.5791 11.9651 10.5795 13.0577 10.5782 14.1502C10.5782 14.199 10.5953 14.2278 10.6362 14.2522C11.1764 14.5741 11.716 14.8972 12.2555 15.2201C12.3417 15.2716 12.4277 15.3234 12.5128 15.3765C12.7853 15.5468 12.8688 15.8979 12.7034 16.175C12.5435 16.4428 12.1867 16.5311 11.9123 16.3682C11.4925 16.1189 11.074 15.8672 10.6545 15.6171C10.6343 15.605 10.6135 15.5781 10.5901 15.5914C10.5667 15.6046 10.5794 15.6365 10.5794 15.6599C10.5787 16.2876 10.58 16.9156 10.5782 17.5434C10.5772 17.871 10.2994 18.1344 9.97534 18.12C9.6657 18.1061 9.42268 17.8514 9.42187 17.5341C9.42027 16.9331 9.42161 16.332 9.4208 15.731C9.4208 15.6965 9.43873 15.6477 9.4093 15.6305C9.38041 15.6136 9.34617 15.6522 9.31661 15.6699C8.9183 15.9076 8.52038 16.146 8.12287 16.3848C7.90258 16.5173 7.68162 16.521 7.46842 16.3768C7.12615 16.1453 7.13805 15.6321 7.4921 15.4106C7.79264 15.2227 8.09946 15.0448 8.40362 14.8625C8.7269 14.6688 9.04964 14.4742 9.37412 14.2824C9.42308 14.2535 9.42161 14.2134 9.42161 14.1681C9.42134 13.1113 9.42134 12.0544 9.42134 10.9976C9.42134 10.9551 9.42174 10.9127 9.42121 10.8702C9.4204 10.7996 9.41599 10.7965 9.35593 10.831C9.20506 10.9174 9.05446 11.0046 8.90399 11.0917C8.42154 11.3709 7.9391 11.6503 7.45679 11.9296C7.14421 12.1105 6.83189 12.2919 6.51851 12.4717C6.4824 12.4923 6.4713 12.5179 6.46956 12.5578C6.45712 12.8369 6.46046 13.1161 6.45565 13.3952C6.44789 13.8485 6.44067 14.3019 6.42984 14.7551C6.42261 15.0571 6.17624 15.3082 5.88239 15.3198C5.56673 15.3321 5.29642 15.112 5.2785 14.7992C5.26325 14.5324 5.2805 14.2638 5.28385 13.9959C5.28706 13.7391 5.29187 13.4822 5.29334 13.2254C5.29374 13.1666 5.25736 13.2051 5.24158 13.2141C5.08429 13.3029 4.92793 13.3932 4.77157 13.4837C4.38958 13.7049 4.00544 13.9227 3.62639 14.1492C3.28532 14.3529 2.91268 14.1951 2.78121 13.916C2.64906 13.6356 2.757 13.3065 3.02597 13.1518C3.55363 12.8483 4.07967 12.5419 4.60599 12.2362C4.68062 12.1927 4.67942 12.1798 4.60291 12.1368C4.1832 11.9006 3.76215 11.6667 3.3443 11.4271C2.99374 11.2263 2.94532 10.7604 3.24212 10.487C3.42255 10.3206 3.70089 10.2954 3.92773 10.4232C4.55329 10.7756 5.17952 11.1267 5.80428 11.4803C5.85096 11.5067 5.88399 11.4995 5.92626 11.475C6.84808 10.9399 7.77043 10.4059 8.69279 9.87177C8.83871 9.78732 8.83978 9.78584 8.69359 9.70112C8.00463 9.30229 7.31514 8.90454 6.62592 8.50626C6.40777 8.38024 6.18935 8.25463 5.9724 8.12634C5.93 8.10127 5.8983 8.10368 5.85644 8.12741C5.21456 8.49165 4.57228 8.85535 3.92893 9.2169C3.65394 9.37147 3.29963 9.26757 3.14608 8.99222C2.98999 8.71217 3.0875 8.36201 3.36798 8.20248C3.80401 7.95448 4.24098 7.70781 4.67728 7.4602C4.696 7.44961 4.72623 7.44452 4.72663 7.42039C4.72717 7.3921 4.69467 7.38674 4.67447 7.37508C4.1206 7.05454 3.56513 6.73656 3.01287 6.41335C2.75151 6.26025 2.65655 5.95138 2.77492 5.67428C2.90733 5.36421 3.30097 5.23752 3.59308 5.40737C4.12702 5.71785 4.66243 6.02578 5.19744 6.33452C5.26151 6.37152 5.26338 6.37085 5.26204 6.29484C5.25348 5.8125 5.24171 5.33016 5.2365 4.84782C5.23422 4.63158 5.33547 4.46495 5.51925 4.35475C5.90058 4.12605 6.38302 4.39752 6.39238 4.8442C6.39854 5.13229 6.40188 5.42038 6.40736 5.70847C6.41552 6.13719 6.42582 6.5659 6.43171 6.99462C6.43251 7.05615 6.47157 7.07398 6.51129 7.09704C6.91442 7.33084 7.31768 7.56437 7.72108 7.79776C8.25957 8.10931 8.79819 8.42073 9.33667 8.73215C9.35018 8.73992 9.36383 8.7477 9.37733 8.75534C9.4101 8.77384 9.42214 8.76016 9.42147 8.72665C9.42121 8.71324 9.42161 8.69984 9.42161 8.68643C9.42161 7.61169 9.42107 6.53708 9.42294 5.46234C9.42308 5.39812 9.40194 5.3634 9.34657 5.33069C8.9413 5.09167 8.53857 4.84849 8.13478 4.60691C7.93575 4.48787 7.73726 4.36789 7.53704 4.25086C7.20386 4.05607 7.11826 3.6543 7.34925 3.36138C7.52406 3.13965 7.85269 3.08429 8.10522 3.23523C8.51677 3.48123 8.92779 3.72803 9.33908 3.9743C9.36182 3.98797 9.38496 4.00071 9.42147 4.02148Z" fill="#959595"/>
</svg>
