<svg width="20" height="20" viewBox="0 0 20 20" fill="none" xmlns="http://www.w3.org/2000/svg">
<path d="M9.41698 17.6328C7.19429 17.6328 4.9716 17.633 2.74869 17.6326C2.51493 17.6326 2.28348 17.6123 2.06726 17.5141C1.81088 17.3978 1.66905 17.2129 1.66969 16.9144C1.67412 14.5894 1.67793 12.2646 1.66799 9.93966C1.66567 9.41802 1.82102 8.95725 2.08205 8.52099C2.30081 8.15555 2.59038 7.84738 2.88629 7.54471C4.04223 6.36277 5.37466 5.4222 6.83476 4.65559C7.72882 4.18637 8.65734 3.79894 9.61481 3.48105C10.686 3.12532 11.7809 2.86408 12.8945 2.68125C13.5825 2.5686 14.2743 2.48764 14.9691 2.43353C15.8718 2.36315 16.7768 2.34984 17.6819 2.36843C18.0934 2.37689 18.3766 2.73282 18.3295 3.14329C18.2741 3.62541 18.2338 4.10922 18.1862 4.59218C18.1403 5.05781 18.0926 5.52323 18.0473 5.98887C18.0011 6.46507 17.9573 6.94127 17.9112 7.41747C17.8671 7.87613 17.8216 8.33478 17.7764 8.79344C17.7375 9.1889 17.698 9.58436 17.6591 9.98003C17.6117 10.4596 17.5646 10.9392 17.5177 11.4188C17.4729 11.8774 17.4289 12.3361 17.3839 12.7945C17.3376 13.2671 17.29 13.7395 17.2435 14.2121C17.2053 14.6006 17.17 14.9895 17.1298 15.378C17.0753 15.9062 17.044 16.4376 16.9605 16.962C16.8903 17.4022 16.5938 17.6333 16.1487 17.6331C13.9048 17.6326 11.6608 17.6328 9.41698 17.6328ZM4.04857 9.87012C4.07415 9.90373 4.11093 9.90394 4.14305 9.9107C4.41212 9.96862 4.68139 10.0014 4.95934 9.98087C5.55179 9.93712 6.04215 9.6949 6.43571 9.25484C6.49151 9.19249 6.54836 9.1722 6.62783 9.1722C8.86426 9.17347 11.1009 9.17326 13.3373 9.17305C14.4115 9.17305 15.4858 9.17178 16.56 9.17495C16.6636 9.17516 16.6984 9.14684 16.7039 9.03968C16.717 8.79048 16.7475 8.54234 16.7699 8.29357C16.8102 7.84865 16.8502 7.40394 16.8897 6.95902C16.9212 6.6052 16.9523 6.25117 16.9825 5.89735C17.0222 5.43489 17.0624 4.97242 17.0996 4.50975C17.1264 4.17664 17.1457 3.8429 17.1748 3.51022C17.1898 3.34028 17.1856 3.32844 17.0148 3.32612C16.4196 3.31766 15.8259 3.33859 15.232 3.38298C14.6808 3.42419 14.1321 3.48401 13.5859 3.56538C12.7605 3.68818 11.9436 3.85474 11.1364 4.06821C9.91051 4.39244 8.72392 4.82088 7.58932 5.3886C6.68258 5.84239 5.82888 6.38052 5.0386 7.01694C4.87416 7.14946 4.71542 7.28917 4.55711 7.42888C4.46179 7.513 4.46475 7.51533 4.56853 7.57874C4.61355 7.60621 4.65878 7.63369 4.70105 7.6654C5.17239 8.01816 5.39897 8.49838 5.43998 9.0773C5.44737 9.18213 5.39707 9.24935 5.32669 9.31318C5.07897 9.53828 4.78982 9.68581 4.46897 9.77268C4.33159 9.80967 4.19103 9.83736 4.04857 9.87012ZM9.40049 16.5261C9.40049 16.5264 9.40049 16.5264 9.40049 16.5266C11.5627 16.5266 13.725 16.5266 15.8872 16.5261C15.9327 16.5261 15.9796 16.5266 16.0235 16.5164C16.1208 16.4942 16.1956 16.4086 16.189 16.3366C16.181 16.2493 16.1064 16.1958 15.9872 16.1935C15.9132 16.192 15.8392 16.1926 15.7653 16.1926C14.5468 16.1926 13.3285 16.193 12.11 16.193C9.05322 16.193 5.99649 16.1928 2.93998 16.1928C2.89432 16.1928 2.84803 16.1913 2.8028 16.1964C2.71466 16.2061 2.66055 16.256 2.65231 16.3456C2.64407 16.4372 2.6948 16.4934 2.77786 16.5164C2.82077 16.5285 2.86854 16.5259 2.91398 16.5259C5.07601 16.5264 7.23825 16.5261 9.40049 16.5261ZM14.7687 10.5528C14.7687 10.5526 14.7687 10.5526 14.7687 10.5524C14.4451 10.5524 14.1213 10.5513 13.7977 10.5526C13.5544 10.5537 13.3779 10.7162 13.372 10.9417C13.3663 11.1569 13.5396 11.3408 13.7778 11.3431C14.4322 11.3494 15.0866 11.3492 15.7407 11.3429C15.987 11.3406 16.1544 11.1609 16.148 10.9354C16.1419 10.7124 15.9639 10.5532 15.7183 10.5528C15.4019 10.5524 15.0853 10.5528 14.7687 10.5528Z" fill="#959595"/>
</svg>
