<svg width="64" height="65" viewBox="0 0 64 65" fill="none" xmlns="http://www.w3.org/2000/svg">
<rect y="0.5" width="64" height="64" rx="16" fill="#ECF5FF"/>
<path d="M31.9402 22.71L29.5302 28.32H27.1202C26.7202 28.32 26.3302 28.35 25.9502 28.43L26.9502 26.03L26.9902 25.94L27.0502 25.78C27.0802 25.71 27.1002 25.65 27.1302 25.6C28.2902 22.91 29.5902 22.07 31.9402 22.71Z" fill="#1572D3"/>
<path d="M38.7301 28.59L38.7101 28.58C38.1101 28.41 37.5001 28.32 36.8801 28.32H30.6201L32.8701 23.09L32.9001 23.02C33.0401 23.07 33.1901 23.14 33.3401 23.19L35.5501 24.12C36.7801 24.63 37.6401 25.16 38.1701 25.8C38.2601 25.92 38.3401 26.03 38.4201 26.16C38.5101 26.3 38.5801 26.44 38.6201 26.59C38.6601 26.68 38.6901 26.76 38.7101 26.85C38.8601 27.36 38.8701 27.94 38.7301 28.59Z" fill="#1572D3"/>
<path d="M32.52 38.16H32.77C33.07 38.16 33.32 37.89 33.32 37.56C33.32 37.14 33.2 37.08 32.94 36.98L32.52 36.83V38.16Z" fill="#1572D3"/>
<path d="M38.2902 30.0199C37.8402 29.8899 37.3702 29.8199 36.8802 29.8199H27.1202C26.4402 29.8199 25.8002 29.9499 25.2002 30.2099C23.4602 30.9599 22.2402 32.6899 22.2402 34.6999V36.6499C22.2402 36.8899 22.2602 37.1199 22.2902 37.3599C22.5102 40.5399 24.2102 42.2399 27.3902 42.4499C27.6202 42.4799 27.8502 42.4999 28.1002 42.4999H35.9002C39.6002 42.4999 41.5502 40.7399 41.7402 37.2399C41.7502 37.0499 41.7602 36.8499 41.7602 36.6499V34.6999C41.7602 32.4899 40.2902 30.6299 38.2902 30.0199ZM33.2802 35.9999C33.7402 36.1599 34.3602 36.4999 34.3602 37.5599C34.3602 38.4699 33.6502 39.1999 32.7702 39.1999H32.5202V39.4199C32.5202 39.7099 32.2902 39.9399 32.0002 39.9399C31.7102 39.9399 31.4802 39.7099 31.4802 39.4199V39.1999H31.3902C30.4302 39.1999 29.6402 38.3899 29.6402 37.3899C29.6402 37.0999 29.8702 36.8699 30.1602 36.8699C30.4502 36.8699 30.6802 37.0999 30.6802 37.3899C30.6802 37.8099 31.0002 38.1599 31.3902 38.1599H31.4802V36.4699L30.7202 36.1999C30.2602 36.0399 29.6402 35.6999 29.6402 34.6399C29.6402 33.7299 30.3502 32.9999 31.2302 32.9999H31.4802V32.7799C31.4802 32.4899 31.7102 32.2599 32.0002 32.2599C32.2902 32.2599 32.5202 32.4899 32.5202 32.7799V32.9999H32.6102C33.5702 32.9999 34.3602 33.8099 34.3602 34.8099C34.3602 35.0999 34.1302 35.3299 33.8402 35.3299C33.5502 35.3299 33.3202 35.0999 33.3202 34.8099C33.3202 34.3899 33.0002 34.0399 32.6102 34.0399H32.5202V35.7299L33.2802 35.9999Z" fill="#1572D3"/>
<path d="M30.6802 34.64C30.6802 35.06 30.8002 35.12 31.0602 35.22L31.4802 35.37V34.04H31.2302C30.9202 34.04 30.6802 34.31 30.6802 34.64Z" fill="#1572D3"/>
</svg>
