<svg width="24" height="25" viewBox="0 0 24 25" fill="none" xmlns="http://www.w3.org/2000/svg">
<path d="M21.97 19.0517C21.97 19.4117 21.89 19.7817 21.72 20.1417C21.55 20.5017 21.33 20.8417 21.04 21.1617C20.55 21.7017 20.01 22.0917 19.4 22.3417C18.8 22.5917 18.15 22.7217 17.45 22.7217C16.43 22.7217 15.34 22.4817 14.19 21.9917C13.04 21.5017 11.89 20.8417 10.75 20.0117C9.6 19.1717 8.51 18.2417 7.47 17.2117C6.44 16.1717 5.51 15.0817 4.68 13.9417C3.86 12.8017 3.2 11.6617 2.72 10.5317C2.24 9.39168 2 8.30168 2 7.26168C2 6.58168 2.12 5.93168 2.36 5.33168C2.6 4.72168 2.98 4.16168 3.51 3.66168C4.15 3.03168 4.85 2.72168 5.59 2.72168C5.87 2.72168 6.15 2.78168 6.4 2.90168C6.66 3.02168 6.89 3.20168 7.07 3.46168L9.39 6.73168C9.57 6.98168 9.7 7.21168 9.79 7.43168C9.88 7.64168 9.93 7.85168 9.93 8.04168C9.93 8.28168 9.86 8.52168 9.72 8.75168C9.59 8.98168 9.4 9.22168 9.16 9.46168L8.4 10.2517C8.29 10.3617 8.24 10.4917 8.24 10.6517C8.24 10.7317 8.25 10.8017 8.27 10.8817C8.3 10.9617 8.33 11.0217 8.35 11.0817C8.53 11.4117 8.84 11.8417 9.28 12.3617C9.73 12.8817 10.21 13.4117 10.73 13.9417C11.27 14.4717 11.79 14.9617 12.32 15.4117C12.84 15.8517 13.27 16.1517 13.61 16.3317C13.66 16.3517 13.72 16.3817 13.79 16.4117C13.87 16.4417 13.95 16.4517 14.04 16.4517C14.21 16.4517 14.34 16.3917 14.45 16.2817L15.21 15.5317C15.46 15.2817 15.7 15.0917 15.93 14.9717C16.16 14.8317 16.39 14.7617 16.64 14.7617C16.83 14.7617 17.03 14.8017 17.25 14.8917C17.47 14.9817 17.7 15.1117 17.95 15.2817L21.26 17.6317C21.52 17.8117 21.7 18.0217 21.81 18.2717C21.91 18.5217 21.97 18.7717 21.97 19.0517Z" stroke="#D6D6D6" stroke-width="1.5" stroke-miterlimit="10"/>
</svg>
