<svg width="116" height="26" viewBox="0 0 116 26" fill="none" xmlns="http://www.w3.org/2000/svg">
<g clip-path="url(#clip0_46_5182)">
<path fill-rule="evenodd" clip-rule="evenodd" d="M12.8619 21.8952C11.6945 21.8952 10.5781 21.6745 9.55404 21.2709L5.87842 23.6623C7.88879 24.9654 10.2877 25.7217 12.8619 25.7217C17.6219 25.7217 21.7785 23.1361 24.0019 19.2926L20.6884 17.3784C19.125 20.079 16.2056 21.8952 12.8619 21.8952Z" fill="white"/>
<path fill-rule="evenodd" clip-rule="evenodd" d="M4.27734 3.2832L8.06235 12.8617L4.27734 22.4384L10.2538 18.5496L19.0006 12.8617L10.2538 7.17194L4.27734 3.2832Z" fill="white"/>
<path fill-rule="evenodd" clip-rule="evenodd" d="M12.8618 3.82651C16.2056 3.82651 19.1249 5.64264 20.6883 8.34326L24.0019 6.42906C21.7765 2.58558 17.6219 0 12.8618 0C10.2857 0 7.88872 0.756249 5.87646 2.05941L9.55398 4.45074C10.578 4.04716 11.6926 3.82651 12.8618 3.82651Z" fill="white"/>
<path fill-rule="evenodd" clip-rule="evenodd" d="M2.82885 20.9092L4.58274 16.4849L6.0198 12.8602L4.58274 9.23733L2.82885 4.81299C1.05988 7.01573 0 9.81441 0 12.862C0 15.9078 1.05988 18.7065 2.82885 20.9092Z" fill="white"/>
</g>
<path d="M38.864 18.3608L36.4 14.0088H35.344V18.3608H33.104V7.19284H37.296C38.16 7.19284 38.896 7.34751 39.504 7.65684C40.112 7.95551 40.5653 8.36617 40.864 8.88884C41.1733 9.40084 41.328 9.97684 41.328 10.6168C41.328 11.3528 41.1147 12.0195 40.688 12.6168C40.2613 13.2035 39.6267 13.6088 38.784 13.8328L41.456 18.3608H38.864ZM35.344 12.3288H37.216C37.824 12.3288 38.2773 12.1848 38.576 11.8968C38.8747 11.5982 39.024 11.1875 39.024 10.6648C39.024 10.1528 38.8747 9.75817 38.576 9.48084C38.2773 9.19284 37.824 9.04884 37.216 9.04884H35.344V12.3288ZM45.594 9.00084V11.8008H49.354V13.5768H45.594V16.5368H49.834V18.3608H43.354V7.17684H49.834V9.00084H45.594ZM61.4216 18.3608H59.1816L54.1096 10.6968V18.3608H51.8696V7.17684H54.1096L59.1816 14.8568V7.17684H61.4216V18.3608ZM71.2353 7.19284V9.00084H68.2593V18.3608H66.0193V9.00084H63.0433V7.19284H71.2353ZM72.3256 12.7608C72.3256 11.6622 72.571 10.6808 73.0616 9.81684C73.563 8.94217 74.2403 8.26484 75.0936 7.78484C75.9576 7.29417 76.923 7.04884 77.9896 7.04884C79.2376 7.04884 80.331 7.36884 81.2696 8.00884C82.2083 8.64884 82.8643 9.53417 83.2376 10.6648H80.6616C80.4056 10.1315 80.043 9.73151 79.5736 9.46484C79.115 9.19817 78.5816 9.06484 77.9736 9.06484C77.323 9.06484 76.7416 9.21951 76.2296 9.52884C75.7283 9.82751 75.3336 10.2542 75.0456 10.8088C74.7683 11.3635 74.6296 12.0142 74.6296 12.7608C74.6296 13.4968 74.7683 14.1475 75.0456 14.7128C75.3336 15.2675 75.7283 15.6995 76.2296 16.0088C76.7416 16.3075 77.323 16.4568 77.9736 16.4568C78.5816 16.4568 79.115 16.3235 79.5736 16.0568C80.043 15.7795 80.4056 15.3742 80.6616 14.8408H83.2376C82.8643 15.9822 82.2083 16.8728 81.2696 17.5128C80.3416 18.1422 79.2483 18.4568 77.9896 18.4568C76.923 18.4568 75.9576 18.2168 75.0936 17.7368C74.2403 17.2462 73.563 16.5688 73.0616 15.7048C72.571 14.8408 72.3256 13.8595 72.3256 12.7608ZM91.9989 16.2328H87.5509L86.8149 18.3608H84.4629L88.4789 7.17684H91.0869L95.1029 18.3608H92.7349L91.9989 16.2328ZM91.3909 14.4408L89.7749 9.76884L88.1589 14.4408H91.3909ZM102.364 18.3608L99.9 14.0088H98.844V18.3608H96.604V7.19284H100.796C101.66 7.19284 102.396 7.34751 103.004 7.65684C103.612 7.95551 104.065 8.36617 104.364 8.88884C104.673 9.40084 104.828 9.97684 104.828 10.6168C104.828 11.3528 104.615 12.0195 104.188 12.6168C103.761 13.2035 103.127 13.6088 102.284 13.8328L104.956 18.3608H102.364ZM98.844 12.3288H100.716C101.324 12.3288 101.777 12.1848 102.076 11.8968C102.375 11.5982 102.524 11.1875 102.524 10.6648C102.524 10.1528 102.375 9.75817 102.076 9.48084C101.777 9.19284 101.324 9.04884 100.716 9.04884H98.844V12.3288ZM110.71 18.4728C109.931 18.4728 109.227 18.3395 108.598 18.0728C107.979 17.8062 107.489 17.4222 107.126 16.9208C106.763 16.4195 106.577 15.8275 106.566 15.1448H108.966C108.998 15.6035 109.158 15.9662 109.446 16.2328C109.745 16.4995 110.15 16.6328 110.662 16.6328C111.185 16.6328 111.595 16.5102 111.894 16.2648C112.193 16.0088 112.342 15.6782 112.342 15.2728C112.342 14.9422 112.241 14.6702 112.038 14.4568C111.835 14.2435 111.579 14.0782 111.27 13.9608C110.971 13.8328 110.555 13.6942 110.022 13.5448C109.297 13.3315 108.705 13.1235 108.246 12.9208C107.798 12.7075 107.409 12.3928 107.078 11.9768C106.758 11.5502 106.598 10.9848 106.598 10.2808C106.598 9.61951 106.763 9.04351 107.094 8.55284C107.425 8.06217 107.889 7.68884 108.486 7.43284C109.083 7.16617 109.766 7.03284 110.534 7.03284C111.686 7.03284 112.619 7.31551 113.334 7.88084C114.059 8.43551 114.459 9.21417 114.534 10.2168H112.07C112.049 9.83284 111.883 9.51817 111.574 9.27284C111.275 9.01684 110.875 8.88884 110.374 8.88884C109.937 8.88884 109.585 9.00084 109.318 9.22484C109.062 9.44884 108.934 9.77417 108.934 10.2008C108.934 10.4995 109.03 10.7502 109.222 10.9528C109.425 11.1448 109.67 11.3048 109.958 11.4328C110.257 11.5502 110.673 11.6888 111.206 11.8488C111.931 12.0622 112.523 12.2755 112.982 12.4888C113.441 12.7022 113.835 13.0222 114.166 13.4488C114.497 13.8755 114.662 14.4355 114.662 15.1288C114.662 15.7262 114.507 16.2808 114.198 16.7928C113.889 17.3048 113.435 17.7155 112.838 18.0248C112.241 18.3235 111.531 18.4728 110.71 18.4728Z" fill="white"/>
<defs>
<clipPath id="clip0_46_5182">
<rect width="24" height="25.7219" fill="white"/>
</clipPath>
</defs>
</svg>
