<svg width="218" height="67" viewBox="0 0 218 67" fill="none" xmlns="http://www.w3.org/2000/svg">
<path d="M78.6589 21.1746H84.5803L97.8425 43.0599H91.5562L81.6601 26.3622L76.3877 35.1974H84.9048L87.4599 39.3312H74.1164L71.7236 43.0193H65.4372L78.6589 21.1746ZM182.973 43.1004H189.259L191.652 39.4123H204.995L202.44 35.2785H193.923L199.196 26.4433L209.092 43.141H215.378L202.116 21.2556H196.194L182.973 43.1004ZM97.4776 32.1577V35.0758C97.5992 40.8309 100.844 43.2625 105.873 43.141H122.42V38.6423H105.913C103.156 38.7233 102.953 36.8186 102.872 34.9137V32.1578V29.2803C102.953 27.5781 103.156 25.6328 105.913 25.6733H122.42V21.1747H105.873C100.844 21.0531 97.6398 23.5253 97.4776 29.2398V32.1577ZM160.301 25.8759H173.604C175.469 25.8759 176.402 26.6864 176.402 28.2671C176.402 29.8882 175.469 30.6583 173.604 30.6583H161.68L162.734 35.3596H172.914C174.902 35.319 176.037 36.697 176.199 38.6019L176.362 43.1005H181.634C181.634 43.1005 181.594 38.8855 181.472 38.0344C181.35 37.1833 180.985 34.8327 178.917 33.6979C183.784 30.4962 181.999 21.2152 175.023 21.2152H154.947V43.1004H160.301L160.301 25.8759ZM138.522 43.1004H143.186C148.945 42.9789 151.378 39.7366 151.257 34.711V21.1746H145.984V35.8053C146.065 38.5612 144.119 38.7638 142.253 38.8449H138.522H134.588C132.884 38.7639 130.937 38.5612 130.978 35.8053V21.1746H125.584V34.7516C125.462 39.7771 127.936 42.9789 133.655 43.1004H138.522ZM51.0937 30.9236C50.6476 22.7367 47.8491 16.7386 44.0367 13.4558C39.8998 9.92985 32.1939 8.55187 26.2319 8.59242C20.2699 8.55187 12.564 9.92985 8.42711 13.4558C4.61473 16.7387 1.81619 22.7368 1.37009 30.9236C0.964477 38.6238 2.62733 47.0132 7.00755 51.755C11.2255 56.4158 19.6614 57.8748 26.1912 57.8748C32.7209 57.9153 41.1568 56.4158 45.3748 51.755C49.7552 46.9727 51.4585 38.5833 51.0937 30.9236ZM24.8122 10.6593C25.6234 10.6188 25.8261 10.6188 26.1912 10.6188C26.5562 10.6188 26.7184 10.6188 27.5702 10.6593L27.6107 28.5728C27.3674 28.5728 25.0151 28.5728 24.7717 28.5728C24.7717 28.5728 24.7717 10.6593 24.8122 10.6593ZM4.65531 38.4615C4.41192 35.3814 3.47914 24.1551 7.94043 17.7516C9.84666 14.9552 12.6451 13.0909 15.4841 12.1182C19.4181 10.7403 24.1228 10.6592 24.1228 10.6592C22.2977 15.1579 18.5259 24.8036 17.7959 26.9515C16.9037 29.5858 16.133 31.0854 15.3625 35.8272C14.8757 39.718 14.0241 49.4042 13.7807 53.6192C8.50817 51.1065 5.3447 46.3242 4.65531 38.4615ZM26.1507 55.8078C22.46 55.7673 17.9175 55.4026 14.308 53.8625C15.5247 50.6202 21.3244 36.6785 24.5284 31.2477C24.7717 31.2477 27.5702 31.2477 27.8136 31.2477C30.977 36.6785 36.8173 50.6202 38.0341 53.8625C34.3838 55.443 29.8819 55.7673 26.1507 55.8078ZM47.6867 38.4214C46.9973 46.3244 43.8337 51.0661 38.5613 53.6195C38.318 49.4045 37.4663 39.7182 36.9796 35.8275C36.209 31.0451 35.4384 29.5861 34.5461 26.9518C33.8161 24.8037 30.0443 15.158 28.2192 10.6594C28.2192 10.6594 32.9238 10.7404 36.8579 12.1184C39.6969 13.091 42.4953 14.9958 44.4016 17.7518C48.8629 24.1553 47.93 35.3815 47.6867 38.4214Z" fill="#5F5F5F"/>
</svg>
