<svg width="144" height="67" viewBox="0 0 144 67" fill="none" xmlns="http://www.w3.org/2000/svg">
<rect width="143.585" height="66.5394" transform="translate(0.226562 0.000610352)" fill="white"/>
<path d="M118.694 58.1219C113 58.1219 107.559 56.2517 103.163 52.7631C98.7674 56.2158 93.3265 58.1219 87.6333 58.1219C81.9401 58.1219 76.4992 56.2517 72.1032 52.7631C67.7072 56.2158 62.2662 58.1219 56.573 58.1219C50.8798 58.1219 45.4389 56.2517 41.0429 52.7631C36.6469 56.2158 31.2059 58.1219 25.5127 58.1219C18.8827 58.1219 12.649 55.6044 7.92872 51.0009C3.13635 46.3974 0.469927 40.2474 0.361828 33.7019C0.25373 27.1203 2.70396 20.8984 7.28013 16.1151C11.8203 11.3678 17.9819 8.63449 24.6119 8.4187H24.72H26.3055C31.7104 8.59852 36.827 10.4687 41.0068 13.7415C45.1506 10.4687 50.2673 8.59852 55.6722 8.4187L55.7803 11.2239V8.4187H57.3657C62.7707 8.59852 67.8873 10.4687 72.0671 13.7415C76.2469 10.4687 81.3276 8.59852 86.7685 8.4187H86.8766H88.4621C93.867 8.59852 98.9836 10.4687 103.163 13.7415C107.307 10.4687 112.424 8.59852 117.865 8.4187L117.973 11.2239V8.4187H119.558C126.152 8.63449 132.314 11.3678 136.89 16.1151C141.466 20.8625 143.917 27.1203 143.808 33.6659C143.7 40.2474 141.034 46.3974 136.314 51.0009C131.521 55.6044 125.288 58.1219 118.694 58.1219ZM107.271 48.6991C110.478 51.0368 114.442 52.4395 118.694 52.4395C129.179 52.4395 137.863 43.9878 138.007 33.6299C138.187 23.2721 129.828 14.5687 119.378 14.173H118.009C114.009 14.3169 110.334 15.6836 107.307 17.8774C110.911 22.373 112.784 27.9116 112.712 33.7019C112.568 39.2045 110.694 44.4193 107.271 48.6991ZM76.2109 48.6991C79.4178 51.0368 83.3814 52.4395 87.6333 52.4395C91.8852 52.4395 95.8128 51.0368 99.0197 48.6991C95.6326 44.4553 93.7229 39.2045 93.6148 33.7019C93.5067 27.9116 95.4164 22.373 99.0197 17.8774C95.9929 15.6836 92.3176 14.3169 88.3179 14.173H86.9487C82.949 14.3169 79.2737 15.6836 76.2469 17.8774C79.8502 22.373 81.7239 27.9116 81.6519 33.7019C81.5077 39.2045 79.598 44.4193 76.2109 48.6991ZM45.1146 48.6991C48.3215 51.0368 52.2851 52.4395 56.537 52.4395C60.7889 52.4395 64.7164 51.0368 67.9234 48.6991C64.5363 44.4553 62.6265 39.2045 62.5184 33.7019C62.4103 27.9116 64.3201 22.373 67.9234 17.8774C64.8966 15.6836 61.2213 14.3169 57.2216 14.173H55.8524C51.8527 14.3169 48.1774 15.6836 45.1506 17.8774C48.7539 22.373 50.6276 27.9116 50.5555 33.7019C50.4114 39.2045 48.5017 44.4193 45.1146 48.6991ZM24.756 14.1371C14.3065 14.4967 5.94691 23.2361 6.12708 33.594C6.30724 43.9518 14.9551 52.4035 25.4407 52.4035C29.6925 52.4035 33.6201 51.0009 36.827 48.6632C33.44 44.4193 31.5302 39.1685 31.4221 33.6659C31.314 27.8756 33.2238 22.337 36.827 17.8414C33.8003 15.6476 30.1249 14.2809 26.1253 14.1371H24.756ZM72.0671 21.9414C69.6169 25.2142 68.2116 29.2422 68.2837 33.594C68.3558 37.6939 69.761 41.5062 72.0671 44.5992C74.3732 41.5062 75.7785 37.6939 75.8506 33.594C75.9226 29.2422 74.4813 25.2142 72.0671 21.9414ZM40.9708 21.9414C38.5206 25.2142 37.1153 29.2422 37.1874 33.594C37.2594 37.6939 38.6647 41.5062 40.9708 44.5992C43.2769 41.5062 44.6822 37.6939 44.7543 33.594C44.8263 29.2422 43.421 25.2142 40.9708 21.9414ZM103.127 21.9414C100.677 25.2142 99.2719 29.2422 99.344 33.594C99.416 37.6939 100.821 41.5062 103.127 44.5992C105.434 41.5062 106.839 37.6939 106.911 33.594C107.019 29.2422 105.578 25.2142 103.127 21.9414Z" fill="#5F5F5F"/>
</svg>
