<svg width="273" height="67" viewBox="0 0 273 67" fill="none" xmlns="http://www.w3.org/2000/svg">
<g clip-path="url(#clip0_4239_200)">
<path d="M32.293 8.99982C32.3485 9.0092 32.404 9.02585 32.4594 9.0267C33.277 9.03523 34.0942 9.04633 34.9117 9.06382C36.0276 9.08772 37.1426 9.12826 38.2572 9.16837C39.286 9.20549 40.3143 9.26523 41.3414 9.33905C42.7786 9.44231 44.2145 9.55539 45.6482 9.70474C47.3806 9.88524 49.1011 10.1255 50.7883 10.5667C52.4888 11.0118 54.0902 11.671 55.4766 12.7817C56.8395 13.8737 57.7766 15.2665 58.3795 16.8944C58.8416 18.1421 59.0853 19.4346 59.1945 20.7587C59.3051 22.0973 59.3652 23.4371 59.4087 24.7791C59.4574 26.2786 59.5129 27.778 59.4796 29.2775C59.4489 30.6763 59.3853 32.0742 59.2837 33.4704C59.2154 34.4121 59.1408 35.3534 59.0537 36.293C58.9586 37.3176 58.8344 38.3391 58.7307 39.3632C58.5937 40.7202 58.3919 42.0677 58.161 43.4106C57.7949 45.5411 57.3354 47.6427 56.5255 49.664C55.3576 52.5776 53.2616 54.4606 50.3348 55.4852C48.8669 55.9989 47.3525 56.3117 45.8206 56.5473C44.4167 56.7632 43.003 56.8882 41.5855 56.9816C40.5861 57.0474 39.5872 57.1062 38.5866 57.1506C37.2092 57.2121 35.8317 57.2522 34.4535 57.2846C33.7212 57.3017 32.989 57.3013 32.2572 57.3187C30.9634 57.3495 29.6696 57.3623 28.3754 57.3418C26.9254 57.3192 25.4755 57.2991 24.0259 57.2616C22.9037 57.233 21.7819 57.1899 20.6609 57.134C19.5335 57.0777 18.4062 57.0119 17.2805 56.9245C15.0279 56.7495 12.7838 56.5084 10.5957 55.9076C9.10134 55.4971 7.65949 54.965 6.37552 54.0681C4.69428 52.8942 3.6147 51.2812 2.8765 49.3943C2.20955 47.69 1.80247 45.923 1.47177 44.133C1.22001 42.7718 1.01433 41.4029 0.846637 40.0289C0.739959 39.1554 0.662725 38.2785 0.573969 37.4029C0.491614 36.5909 0.407126 35.7793 0.332878 34.9664C0.279539 34.3797 0.236442 33.7917 0.198038 33.2041C0.0525297 30.9767 -0.00592955 28.7458 0.0004711 26.5141C0.00388478 25.3279 -0.00208916 24.1395 0.0687447 22.9541C0.168168 21.2814 0.260337 19.6074 0.702836 17.9778C1.15984 16.2957 1.91597 14.7766 3.14191 13.5178C4.15535 12.4766 5.37019 11.7406 6.71134 11.1999C8.19714 10.6008 9.75122 10.2689 11.3249 10.0154C12.6499 9.80203 13.9855 9.66975 15.3215 9.55326C16.3823 9.46066 17.4439 9.38001 18.5082 9.32241C20.026 9.24048 21.5429 9.14874 23.0629 9.10649C24.3276 9.0715 25.592 9.02755 26.8572 9.02713C26.9485 9.02713 27.0424 9.04249 27.1298 8.99939C28.8508 8.99982 30.5721 8.99982 32.293 8.99982ZM29.7067 55.2407C29.7067 55.2402 29.7067 55.2398 29.7067 55.239C30.8661 55.239 32.0259 55.2641 33.184 55.233C34.7607 55.1907 36.3387 55.1677 37.9137 55.0755C38.7786 55.0248 39.6452 55.0009 40.5089 54.9347C41.8603 54.831 43.2117 54.7222 44.5541 54.5234C45.827 54.3352 47.0909 54.1129 48.316 53.7028C50.6522 52.9211 52.3932 51.4673 53.4382 49.213C53.9908 48.0212 54.3825 46.7765 54.6812 45.5006C55.2112 43.236 55.5069 40.9348 55.7557 38.6254C55.9191 37.1081 56.0544 35.5881 56.1657 34.0665C56.2528 32.8768 56.3189 31.6837 56.336 30.4911C56.3595 28.8636 56.3689 27.2353 56.3198 25.6069C56.2741 24.087 56.2067 22.5696 56.0493 21.0569C55.9268 19.8805 55.7181 18.7233 55.3034 17.6104C54.6872 15.9573 53.6639 14.6332 52.1547 13.6979C50.7337 12.8176 49.1617 12.3695 47.5347 12.0862C45.7852 11.7815 44.0216 11.5917 42.2533 11.4333C40.8951 11.3122 39.5343 11.2371 38.1744 11.1517C37.2459 11.0937 36.3156 11.0531 35.3858 11.0241C34.1283 10.9849 32.8704 10.9533 31.6129 10.9388C30.8025 10.9294 29.9922 10.9332 29.1815 10.9537C27.8454 10.9874 26.5081 10.9678 25.1721 11.0147C24.483 11.0391 23.7934 11.0425 23.1043 11.0655C22.4582 11.0873 21.8122 11.1154 21.167 11.1543C20.1041 11.2174 19.0411 11.2861 17.979 11.3629C17.2925 11.4124 16.6063 11.4713 15.9214 11.5439C14.9264 11.6493 13.9326 11.764 12.943 11.9121C11.6565 12.1046 10.3798 12.3333 9.14572 12.7643C6.32175 13.7508 4.52573 15.6723 3.79734 18.585C3.4214 20.0887 3.30747 21.6245 3.20933 23.1619C3.14362 24.1898 3.0954 25.2199 3.0843 26.2496C3.06382 28.1476 3.05955 30.0452 3.14788 31.9427C3.20165 33.0991 3.27888 34.2534 3.36764 35.4076C3.46237 36.6391 3.57502 37.8685 3.70858 39.0965C3.88311 40.6988 4.09603 42.2956 4.39985 43.8787C4.73567 45.6265 5.16409 47.347 5.89334 48.9804C6.64221 50.6578 7.74355 52.0216 9.36633 52.9288C10.5202 53.5739 11.7657 53.958 13.054 54.217C15.0066 54.6096 16.9857 54.7926 18.9682 54.9386C19.9739 55.0124 20.9809 55.0691 21.9884 55.108C23.4443 55.1643 24.9007 55.21 26.3571 55.2364C27.4733 55.2569 28.5905 55.2407 29.7067 55.2407Z" fill="#5F5F5F"/>
<path d="M74.3664 22.516C74.5332 22.5079 74.7001 22.493 74.8669 22.493C80.5306 22.4917 86.1939 22.4917 91.8577 22.4921C92.4572 22.4921 92.458 22.493 92.4585 23.0818C92.4593 23.7897 92.4504 24.4976 92.4623 25.2056C92.467 25.4902 92.3765 25.6156 92.0736 25.6446C91.2428 25.7244 90.4175 25.8584 89.5863 25.9339C88.5076 26.0321 87.958 26.5685 87.9196 27.7193C87.882 28.8377 87.9144 29.9587 87.9059 31.0784C87.9038 31.3553 88.0557 31.3911 88.2754 31.3899C88.9833 31.3856 89.6913 31.3886 90.3992 31.3886C93.9904 31.3886 97.5815 31.389 101.173 31.3882C101.687 31.3882 101.689 31.386 101.689 30.8778C101.689 29.8354 101.696 28.7925 101.685 27.75C101.674 26.6009 101.128 26.0428 99.9784 25.9314C99.1092 25.8473 98.2438 25.7227 97.3754 25.6271C97.16 25.6032 97.084 25.4863 97.0836 25.2964C97.081 24.4597 97.0823 23.6233 97.0831 22.7865C97.0836 22.58 97.1864 22.4802 97.3964 22.4917C97.486 22.4968 97.5764 22.4908 97.6665 22.4908C103.304 22.4908 108.942 22.4908 114.58 22.4908C115.17 22.4908 115.17 22.4917 115.171 23.0878C115.171 23.7829 115.162 24.478 115.174 25.1731C115.179 25.4612 115.116 25.6122 114.781 25.6459C113.823 25.7419 112.867 25.8597 111.916 26.0082C111.227 26.1157 110.822 26.5484 110.706 27.2371C110.653 27.5529 110.614 27.8712 110.615 28.1959C110.62 31.9032 110.62 35.61 110.615 39.3173C110.614 39.642 110.652 39.9608 110.708 40.2757C110.849 41.0728 111.393 41.4867 112.302 41.5733C113.158 41.6548 114.01 41.7811 114.865 41.8741C115.098 41.8993 115.172 42.0107 115.171 42.2257C115.167 43.0497 115.166 43.8733 115.171 44.6972C115.172 44.9281 115.068 45.0271 114.843 45.016C114.753 45.0117 114.663 45.0168 114.573 45.0168C108.935 45.0168 103.297 45.0168 97.6592 45.0168C97.0802 45.0168 97.0789 45.016 97.0776 44.4442C97.0763 43.7491 97.0827 43.054 97.0755 42.3589C97.0721 42.0619 97.1382 41.8955 97.4936 41.8622C98.4136 41.776 99.3332 41.6646 100.245 41.517C101.099 41.3787 101.575 40.8453 101.598 39.9889C101.629 38.8057 101.607 37.6207 101.614 36.4366C101.615 36.2023 101.513 36.1127 101.288 36.1191C101.031 36.1263 100.773 36.1195 100.516 36.1195C96.4994 36.1195 92.4836 36.1195 88.4675 36.1195C87.9076 36.1195 87.9072 36.1204 87.9068 36.661C87.9063 37.6262 87.9106 38.5919 87.9042 39.5571C87.9025 39.8434 87.9464 40.1229 88.0117 40.3969C88.1824 41.1112 88.6992 41.4837 89.5466 41.5707C90.4026 41.6582 91.2543 41.7824 92.1103 41.8694C92.3787 41.8967 92.4606 42.0158 92.4585 42.2646C92.4516 43.0497 92.4474 43.8349 92.4602 44.62C92.4653 44.9238 92.3445 45.0254 92.0484 45.0207C91.2376 45.0079 90.4265 45.0168 89.6157 45.0168C84.7243 45.0168 79.833 45.0173 74.942 45.016C74.7496 45.016 74.5567 45.0011 74.3643 44.9929C74.3643 43.9629 74.3643 42.9332 74.3643 41.9031C75.434 41.7734 76.5051 41.6544 77.5727 41.5097C78.3007 41.4107 78.6971 40.9567 78.8362 40.2462C78.8861 39.9911 78.8993 39.7376 78.8993 39.4803C78.8993 36.7165 78.8998 33.9527 78.8993 31.1893C78.8993 30.0325 78.9109 28.8753 78.8929 27.7189C78.8763 26.6444 78.3668 26.0718 77.347 25.9476C76.3536 25.8268 75.3585 25.7189 74.3643 25.6054C74.3664 24.5757 74.3664 23.5457 74.3664 22.516Z" fill="#5F5F5F"/>
<path d="M131.757 45.6881C131.068 45.6185 130.378 45.5601 129.691 45.4773C126.705 45.1171 123.811 44.4421 121.209 42.8539C118.262 41.0553 116.462 38.4673 116.085 35.0084C115.712 31.5857 116.621 28.5531 119.148 26.1162C120.688 24.6308 122.554 23.6873 124.572 23.0328C126.549 22.391 128.583 22.0526 130.652 21.8593C132.49 21.6878 134.329 21.6728 136.165 21.7373C139.497 21.8542 142.777 22.3065 145.864 23.6664C148.359 24.7652 150.42 26.3726 151.663 28.8659C152.567 30.6798 152.897 32.6077 152.731 34.6312C152.354 39.2017 149.749 42.0717 145.713 43.8361C143.575 44.7711 141.312 45.2426 138.999 45.485C138.336 45.5545 137.672 45.6206 137.009 45.6885C135.258 45.6881 133.507 45.6881 131.757 45.6881ZM142.316 33.6979C142.344 33.022 142.272 32.2808 142.158 31.5435C141.756 28.9444 140.395 27.1539 137.778 26.4981C135.6 25.9523 133.4 25.951 131.211 26.455C128.705 27.0319 127.212 28.6184 126.705 31.1232C126.342 32.9196 126.351 34.7238 126.733 36.5198C127.239 38.9 128.659 40.4319 131.029 41.0143C133.288 41.5695 135.567 41.5707 137.821 40.9968C140.085 40.4208 141.481 38.958 142.012 36.6755C142.235 35.7188 142.333 34.7506 142.316 33.6979Z" fill="#5F5F5F"/>
<path d="M272.104 44.9157C271.95 44.9238 271.796 44.9396 271.642 44.9396C265.554 44.9409 259.466 44.9409 253.377 44.9405C252.771 44.9405 252.77 44.9396 252.77 44.323C252.77 43.6151 252.778 42.9072 252.767 42.1993C252.763 41.9236 252.864 41.8208 253.143 41.7931C253.974 41.7111 254.802 41.5976 255.63 41.4965C255.85 41.4696 256.059 41.4073 256.255 41.3088C256.818 41.0263 256.994 40.5688 256.725 39.997C256.434 39.377 255.998 38.8449 255.626 38.274C255.496 38.0743 255.281 38.134 255.095 38.1336C251.955 38.1306 248.813 38.1315 245.673 38.1315C244.502 38.1315 243.33 38.1383 242.159 38.1268C241.885 38.1242 241.703 38.2032 241.562 38.4481C241.26 38.9717 240.926 39.4769 240.618 39.9975C240.252 40.6158 240.429 41.1453 241.087 41.4496C241.631 41.7005 242.226 41.6194 242.793 41.718C243.058 41.7641 243.329 41.7705 243.598 41.7961C244.165 41.8503 244.165 41.8507 244.166 42.4327C244.166 43.089 244.167 43.7457 244.165 44.402C244.164 44.9379 244.163 44.9401 243.634 44.9401C240.185 44.9409 236.735 44.9405 233.285 44.9405C232.255 44.9405 231.225 44.9298 230.196 44.9465C229.86 44.952 229.74 44.8423 229.749 44.5031C229.768 43.744 229.763 42.9844 229.751 42.2249C229.746 41.9377 229.84 41.8195 230.142 41.7909C230.999 41.7099 231.852 41.5942 232.706 41.4884C233.443 41.3971 233.942 40.9691 234.319 40.3572C235.656 38.1882 236.998 36.0218 238.338 33.855C239.536 31.9177 240.736 29.9813 241.932 28.0432C242.094 27.7816 242.265 27.5252 242.275 27.1962C242.296 26.5629 241.884 26.0837 241.252 26.0176C240.038 25.8909 238.825 25.7509 237.611 25.6378C237.325 25.6114 237.237 25.4992 237.241 25.2286C237.251 24.4695 237.259 23.7095 237.238 22.9504C237.228 22.5979 237.346 22.4832 237.701 22.4849C240.121 22.4972 242.54 22.4913 244.96 22.4913C247.998 22.4913 251.036 22.5135 254.074 22.4793C255.166 22.467 255.938 22.8958 256.522 23.791C259.102 27.7471 261.694 31.6958 264.281 35.6472C265.296 37.1978 266.314 38.7459 267.322 40.3017C267.854 41.1236 268.604 41.5174 269.574 41.5776C270.419 41.6301 271.261 41.7406 272.105 41.8255C272.104 42.856 272.104 43.8861 272.104 44.9157ZM248.517 34.0764C249.816 34.0764 251.115 34.0773 252.415 34.0743C252.511 34.0739 252.642 34.1238 252.697 34.0154C252.751 33.9109 252.643 33.8277 252.589 33.7457C251.249 31.7022 249.905 29.6617 248.568 27.6156C248.414 27.3792 248.335 27.3293 248.164 27.6114C246.92 29.6553 245.662 31.6903 244.411 33.7287C244.214 34.0496 244.228 34.0752 244.619 34.0756C245.918 34.0777 247.217 34.0764 248.517 34.0764Z" fill="#5F5F5F"/>
<path d="M183.251 38.9925C183.251 35.9488 183.258 33.0143 183.247 30.0803C183.243 29.194 183.324 28.3043 183.19 27.421C183.043 26.4511 182.582 26.0364 181.613 25.9374C180.757 25.8499 179.905 25.7253 179.048 25.6387C178.78 25.6113 178.69 25.4991 178.705 25.2457C178.758 24.3991 178.806 23.552 178.85 22.7046C178.859 22.5168 178.935 22.4161 179.129 22.4191C179.232 22.4204 179.336 22.4161 179.438 22.4161C183.854 22.4161 188.269 22.4157 192.684 22.4161C193.26 22.4161 193.261 22.4174 193.262 22.9888C193.263 23.7095 193.254 24.4306 193.265 25.1514C193.269 25.4193 193.183 25.538 192.898 25.567C192.119 25.6459 191.345 25.7769 190.565 25.852C189.238 25.9796 188.747 26.4887 188.711 27.8273C188.707 27.9689 188.71 28.1106 188.71 28.2518C188.71 33.6194 188.71 38.987 188.71 44.3546C188.71 44.9392 188.709 44.9405 188.113 44.9405C184.612 44.9405 181.111 44.9277 177.61 44.9473C176.586 44.9533 175.836 44.5782 175.211 43.7504C171.468 38.7873 167.696 33.8469 163.933 28.8991C163.85 28.7903 163.76 28.6871 163.664 28.5697C163.574 28.7122 163.613 28.8432 163.613 28.9657C163.61 32.338 163.609 35.7107 163.614 39.083C163.615 39.4551 163.642 39.8293 163.688 40.1989C163.791 41.0139 164.347 41.4777 165.256 41.5707C166.112 41.6582 166.964 41.7832 167.82 41.8694C168.092 41.8967 168.165 42.0192 168.163 42.2663C168.155 43.0386 168.146 43.8114 168.166 44.5829C168.175 44.9272 168.047 45.0237 167.716 45.022C165.515 45.0113 163.314 45.0164 161.113 45.0164C158.796 45.0164 156.479 45.01 154.162 45.0228C153.802 45.0249 153.655 44.9255 153.668 44.5453C153.692 43.7994 153.682 43.0523 153.671 42.306C153.667 42.0252 153.749 41.8937 154.056 41.8647C154.887 41.7862 155.713 41.6556 156.543 41.5741C157.682 41.4623 158.214 40.8756 158.222 39.6365C158.233 37.9117 158.225 36.1869 158.225 34.4617C158.225 32.3508 158.225 30.2399 158.225 28.1285C158.225 27.9996 158.229 27.8708 158.222 27.7423C158.152 26.545 157.637 26.0355 156.455 25.9284C155.623 25.8533 154.797 25.7253 153.967 25.6306C153.757 25.6067 153.675 25.5051 153.676 25.305C153.678 24.4682 153.678 23.6318 153.677 22.7951C153.676 22.5873 153.771 22.4861 153.982 22.4925C154.085 22.4959 154.188 22.4912 154.291 22.4912C159.182 22.4912 164.073 22.4912 168.965 22.4912C169.171 22.4912 169.377 22.4887 169.583 22.4964C170.371 22.5245 170.998 22.8138 171.494 23.4727C175.295 28.5207 179.116 33.5541 182.931 38.5919C183.014 38.7028 183.103 38.8086 183.251 38.9925Z" fill="#5F5F5F"/>
<path d="M207.41 44.9405C202.732 44.9405 198.871 44.9409 195.008 44.94C194.456 44.94 194.455 44.9383 194.454 44.3857C194.453 43.665 194.463 42.9439 194.45 42.2232C194.445 41.9347 194.541 41.8221 194.842 41.7905C195.8 41.6902 196.758 41.5763 197.708 41.4244C198.404 41.3134 198.808 40.8803 198.918 40.1954C198.973 39.8541 199.003 39.5046 199.004 39.1585C199.01 35.4509 199.006 31.7436 199.011 28.0359C199.011 27.7116 198.977 27.392 198.922 27.0767C198.827 26.5335 198.501 26.1789 197.97 26.0193C197.262 25.8064 196.523 25.8119 195.799 25.7112C194.523 25.5341 194.791 25.7987 194.763 24.5962C194.749 24.0172 194.768 23.4377 194.758 22.8582C194.753 22.5988 194.842 22.4673 195.113 22.4917C195.177 22.4976 195.242 22.4917 195.306 22.4917C202.721 22.4921 210.137 22.4767 217.552 22.5023C220.207 22.5117 222.807 22.9192 225.269 23.9749C227.853 25.0831 229.862 26.804 230.908 29.4867C231.583 31.2196 231.761 33.0199 231.593 34.8692C231.446 36.4852 231.012 38.0013 230.161 39.3868C229.112 41.0958 227.619 42.3111 225.835 43.1773C223.675 44.2253 221.371 44.7361 218.987 44.8568C214.858 45.0655 210.725 44.8722 207.41 44.9405ZM207.784 33.7526C207.784 35.8498 207.784 37.9471 207.784 40.0448C207.784 40.5876 207.785 40.5897 208.307 40.5897C210.598 40.5906 212.888 40.594 215.179 40.5867C215.718 40.585 216.256 40.5782 216.795 40.5044C219.042 40.198 220.364 39.0531 220.879 36.8449C221.328 34.9175 221.298 32.9674 220.971 31.0237C220.788 29.9369 220.387 28.9431 219.556 28.1729C218.617 27.302 217.451 26.976 216.224 26.9525C213.574 26.9026 210.923 26.9324 208.272 26.9098C207.873 26.9064 207.773 27.0395 207.776 27.4215C207.793 29.532 207.784 31.6425 207.784 33.7526Z" fill="#5F5F5F"/>
<path d="M15.5451 13.0866C16.1207 13.0874 16.017 13.0132 16.1301 13.5342C17.3697 19.2461 18.6481 24.9491 20.1036 30.6107C20.4894 32.1115 20.9156 33.5998 21.551 35.0199C22.515 37.1765 24.1493 38.4532 26.4889 38.8176C27.1563 38.9217 27.8271 38.9683 28.5021 38.9977C29.4695 39.0399 30.4364 39.0233 31.4008 38.9759C32.5243 38.9205 33.635 38.7643 34.677 38.2932C35.9013 37.7393 36.8153 36.856 37.46 35.6873C38.1133 34.5027 38.5341 33.226 38.8899 31.9301C39.9055 28.2314 40.8276 24.5092 41.6644 20.7657C42.2157 18.2989 42.7538 15.8291 43.2902 13.3588C43.3367 13.145 43.4216 13.0708 43.6443 13.0802C44.872 13.1301 46.0992 13.1796 47.3192 13.3375C47.4587 13.3554 47.5018 13.4186 47.4937 13.5466C47.4455 14.2835 47.3994 15.0204 47.3508 15.7574C47.3162 16.2814 47.2765 16.8054 47.2419 17.3294C47.1711 18.406 47.1016 19.483 47.0337 20.56C46.9868 21.3042 46.9458 22.0484 46.8976 22.7925C46.8323 23.8055 46.7619 24.8186 46.6953 25.8316C46.6484 26.5399 46.6053 27.2487 46.5579 27.957C46.4901 28.9768 46.4201 29.9967 46.3523 31.0169C46.3066 31.7039 46.2635 32.3914 46.2174 33.0784C46.1491 34.0982 46.0787 35.118 46.01 36.1379C45.9639 36.8249 45.9221 37.5123 45.8731 38.1993C45.8082 39.1057 45.7361 40.0111 45.6699 40.9175C45.6222 41.5759 45.5816 42.2347 45.5325 42.8931C45.4681 43.7636 45.3977 44.6341 45.3311 45.5046C45.2842 46.1203 45.2407 46.7365 45.1925 47.3523C45.1263 48.2014 45.0576 49.0501 44.9893 49.8993C44.9292 50.6494 44.8694 51.3992 44.8088 52.1493C44.782 52.4817 44.7461 52.8137 44.7278 53.1465C44.7197 53.2925 44.6578 53.3394 44.5195 53.3522C43.8415 53.4154 43.1652 53.5063 42.4858 53.5506C41.3521 53.6249 40.2166 53.674 39.082 53.7273C38.7551 53.7427 38.7564 53.7324 38.6749 53.4154C38.0988 51.1726 37.5633 48.9187 36.8038 46.7275C36.5874 46.1024 36.3344 45.4931 36.0523 44.894C35.4558 43.6275 34.4607 42.9192 33.0927 42.6815C31.6709 42.4348 30.2397 42.3679 28.8034 42.4348C27.8471 42.4792 26.8892 42.5492 25.9517 42.7673C24.8307 43.028 24.0101 43.6783 23.4802 44.696C22.8922 45.8242 22.5145 47.0322 22.1505 48.2441C21.6334 49.9658 21.2084 51.7124 20.7556 53.4516C20.6967 53.6787 20.6007 53.7439 20.3767 53.7337C19.2912 53.6842 18.206 53.6334 17.1213 53.5707C16.3695 53.5272 15.6215 53.4563 14.8751 53.3573C14.7117 53.3356 14.6665 53.2682 14.6545 53.1137C14.579 52.1374 14.4902 51.1619 14.4126 50.1856C14.3469 49.3646 14.2927 48.5432 14.2287 47.7222C14.1502 46.7105 14.064 45.6992 13.9863 44.687C13.9347 44.0145 13.8946 43.3412 13.8451 42.6687C13.7802 41.7837 13.7098 40.8995 13.6454 40.0145C13.5959 39.3348 13.5532 38.6546 13.505 37.9749C13.4393 37.0472 13.3693 36.12 13.3053 35.1927C13.2549 34.4631 13.2122 33.7329 13.1636 33.0033C13.0983 32.0261 13.0283 31.0489 12.9635 30.0714C12.9136 29.3203 12.8709 28.5689 12.8218 27.8179C12.7569 26.8335 12.6878 25.8491 12.6225 24.8646C12.588 24.3475 12.5585 23.8299 12.5248 23.3127C12.4578 22.2856 12.3883 21.2585 12.3226 20.2314C12.2735 19.4591 12.2312 18.6863 12.1817 17.914C12.1169 16.9009 12.0478 15.8879 11.9812 14.8749C11.9517 14.4286 11.9261 13.9818 11.8941 13.5359C11.8839 13.3955 11.9471 13.3507 12.0781 13.3383C12.5939 13.2893 13.1077 13.218 13.624 13.1817C14.2684 13.1352 14.9148 13.116 15.5451 13.0866Z" fill="#5F5F5F"/>
</g>
<defs>
<clipPath id="clip0_4239_200">
<rect width="272.104" height="66.54" fill="white"/>
</clipPath>
</defs>
</svg>
