<svg width="225" height="67" viewBox="0 0 225 67" fill="none" xmlns="http://www.w3.org/2000/svg">
<rect width="224.133" height="66.5394" transform="translate(0.164062 0.000610352)" fill="white"/>
<path d="M213.944 35.7587L215.252 35.6532C215.788 35.611 216.323 35.5477 216.816 35.4845C218.102 35.2946 219.196 34.9571 220.096 34.493C220.439 34.3242 220.61 34.1977 220.996 33.9234C222.132 33.1218 222.711 32.046 222.796 30.5694C222.818 30.274 222.796 30.042 222.775 29.7888C222.711 28.8607 222.496 28.0802 222.111 27.4684C221.66 26.7301 221.017 26.1605 220.16 25.7386C219.303 25.3167 218.21 25.0003 216.945 24.8105C216.945 24.8105 215.08 24.5151 212.315 24.5151H191.182V42.045H197.826V35.8853H206.85L217.009 42.0661H224.297L213.944 35.7587ZM210.922 26.5613C210.965 26.5613 210.986 26.5613 211.029 26.5613C211.779 26.5824 212.422 26.6035 212.98 26.6668C213.687 26.7512 214.287 26.8989 214.759 27.152C215.252 27.4051 215.638 27.7848 215.83 28.2489C216.023 28.6497 216.109 29.156 216.131 29.7678C216.131 29.8099 216.152 30.6537 216.109 31.0756C216.088 31.4975 215.98 31.9616 215.83 32.278C215.68 32.6156 215.466 32.8898 215.166 33.1218C215.08 33.1851 214.995 33.2484 214.909 33.2906C214.48 33.5226 213.944 33.6703 213.258 33.7547C212.637 33.818 211.844 33.8602 210.901 33.8602H197.783V26.5613H210.922Z" fill="#5F5F5F"/>
<path d="M21.9836 24.5362V32.7843C21.9836 35.2524 21.062 37.0876 19.2401 38.2268C17.6754 39.2182 15.4035 39.7245 12.5099 39.7245H0.164062V42.066H10.4094C13.2601 42.066 15.875 41.9605 18.1684 41.7496C20.419 41.5386 22.3266 41.1167 23.8698 40.4839C25.3702 39.8722 26.549 38.9862 27.3635 37.847C28.0922 36.8134 28.4995 35.4633 28.5852 33.7968C28.5852 33.6492 28.6067 33.4593 28.6067 33.2484V24.5362H21.9836Z" fill="#5F5F5F"/>
<path d="M98.0528 34.029V39.7246H87.9146C82.5991 39.7246 79.5126 38.037 78.6767 34.7462C78.3337 33.3751 78.5481 32.0672 78.6767 31.582C79.4912 28.249 82.5348 26.6247 87.9146 26.6247H103.776V24.5363H89.9937C87.1001 24.5363 84.4852 24.6418 82.1918 24.8316C79.9627 25.0215 78.0337 25.4434 76.4904 26.0551C74.9686 26.6669 73.8112 27.5318 73.0182 28.6709C72.2465 29.7467 71.8607 31.2023 71.8179 32.9954C71.8179 33.0375 71.8179 33.0797 71.8179 33.143C71.8179 33.2274 71.8179 33.3118 71.8179 33.4172C71.8393 35.2736 72.2465 36.7713 73.0396 37.8683C73.8541 39.0074 75.0329 39.8934 76.5333 40.5051C78.0765 41.138 80.0056 41.5599 82.2347 41.7708C84.5281 41.9818 87.1216 42.0872 89.9937 42.0872H104.676V34.029H98.0528Z" fill="#5F5F5F"/>
<path d="M53.7694 24.5363H46.9321L31.6069 42.0661H35.5722L39.023 38.1214H58.292L61.7428 42.0661H69.116L53.7694 24.5363ZM48.6468 27.1099L56.6416 36.244H40.6734L48.6468 27.1099Z" fill="#5F5F5F"/>
<path d="M163.081 24.5363L147.756 42.0661H151.722L155.172 38.1003H174.42L177.871 42.0661H185.265L169.94 24.5363H163.081ZM172.812 36.244H156.823L164.818 27.1099L172.812 36.244Z" fill="#5F5F5F"/>
<path d="M138.133 24.5363V33.4172C138.133 34.1767 138.026 34.8728 137.876 35.5056C137.018 38.7331 133.953 40.3785 128.681 40.3996H128.016C122.722 40.3996 119.636 38.7121 118.8 35.4424C118.65 34.8306 118.564 34.1556 118.564 33.4383V24.5363H111.919V33.6915C111.919 35.59 112.327 37.151 113.141 38.2902C113.656 38.9863 114.299 39.6191 115.07 40.1254C115.542 40.4207 116.056 40.695 116.635 40.927C117.214 41.1591 117.835 41.37 118.521 41.5388C119.657 41.8341 120.943 42.045 122.358 42.1927C124.137 42.3615 126.151 42.4669 128.338 42.4669C130.545 42.4669 132.539 42.3615 134.318 42.1927C135.711 42.0661 136.997 41.8552 138.133 41.5599C138.819 41.3911 139.44 41.1802 140.019 40.9481C140.598 40.7161 141.112 40.4629 141.584 40.1465C142.377 39.6402 143.02 39.0285 143.513 38.3113C144.327 37.1721 144.735 35.6111 144.735 33.7126V24.5363H138.133Z" fill="#5F5F5F"/>
</svg>
