<svg width="80" height="67" viewBox="0 0 80 67" fill="none" xmlns="http://www.w3.org/2000/svg">
<rect width="78.7967" height="66.5394" transform="translate(0.296875 0.000610352)" fill="white"/>
<path d="M11.4815 23.0483C15.5809 11.1631 26.9146 3.13253 39.6952 3.13253C52.4758 3.13253 63.8095 11.1631 67.9089 23.0483V23.1286H76.9116V22.0846L73.2141 21.6831C70.883 21.4422 70.4007 20.3982 69.7577 19.1133L69.5969 18.7921C64.2114 7.38872 52.4758 0.000610352 39.6952 0.000610352C26.9146 0.000610352 15.179 7.38872 9.7131 18.7921L9.55234 19.1133C8.98968 20.3982 8.42701 21.4422 6.17634 21.6831L2.39844 22.0846V23.1286H11.4011L11.4815 23.0483Z" fill="#5F5F5F"/>
<path d="M67.9893 42.8839V42.9642C63.8095 54.8494 52.4758 62.8799 39.6952 62.8799C26.9146 62.8799 15.5809 54.8494 11.4815 42.9642V42.8839H2.39844V43.9278L6.17634 44.3293C8.50739 44.5703 8.98968 45.6142 9.63272 46.8991L9.79349 47.2203C15.0986 58.6237 26.9146 66.0119 39.6952 66.0119C52.4758 66.0119 64.2114 58.6237 69.6773 47.2203L69.8381 46.8991C70.4811 45.6142 70.9634 44.6506 73.2944 44.3293L77.0723 43.9278V42.8839H67.9893Z" fill="#5F5F5F"/>
<path d="M18.5552 28.8303H16.4653V37.9851H18.5552V28.8303Z" fill="#5F5F5F"/>
<path d="M11.5619 37.9048V28.8303H9.5524V35.6562L2.88078 28.8303H0.308594V37.9048H2.31812V31.0788L9.07012 37.9048H11.5619Z" fill="#5F5F5F"/>
<path d="M57.2985 28.8303L51.6719 37.9851H54.0833L55.0479 36.379H61.5587L62.5233 37.9851H64.9347L59.3081 28.8303H57.2985ZM60.5942 34.6123H56.0928L58.3435 30.9182L60.5942 34.6123Z" fill="#5F5F5F"/>
<path d="M45.9649 36.0579C45.8845 36.0579 45.6434 36.0579 45.563 36.0579H37.123V37.9049H45.6434C45.7237 37.9049 46.206 37.9049 46.2864 37.9049C48.0548 37.7443 48.7782 36.3791 48.7782 35.0942C48.7782 33.8093 47.9744 32.5244 46.3668 32.3638C46.1256 32.3638 45.8845 32.3638 45.7237 32.3638H40.1775C39.9363 32.3638 39.7755 32.3638 39.5344 32.2835C39.1325 32.2032 38.8914 31.882 38.9717 31.4805C38.9717 31.0789 39.2129 30.7577 39.6148 30.6774C39.7756 30.5971 40.0167 30.5971 40.1775 30.5971H48.2155V28.7501H40.0971C39.8559 28.7501 39.5344 28.7501 39.2933 28.8304C37.9268 28.991 36.8818 30.1153 36.8818 31.4805C36.8818 32.6047 37.6053 33.9699 39.2129 34.1305C39.5344 34.1305 39.7756 34.2108 40.0971 34.1305H45.4826C45.563 34.1305 45.8041 34.1305 45.8845 34.1305C46.3668 34.2108 46.6883 34.6124 46.6883 35.0139C46.6883 35.576 46.3668 35.9776 45.9649 36.0579Z" fill="#5F5F5F"/>
<path d="M31.1748 36.0578C31.0945 36.0578 30.8533 36.0578 30.7729 36.0578H22.4133V37.9048H30.8533C30.9337 37.9048 31.416 37.9048 31.4964 37.9048C33.2647 37.7442 34.0686 36.379 34.0686 35.1744C34.0686 33.9698 33.2647 32.6046 31.6571 32.444C31.416 32.444 31.1748 32.444 31.0141 32.444H25.4678C25.2267 32.444 25.0659 32.444 24.8247 32.3637C24.4228 32.2834 24.1817 31.9622 24.2621 31.5607C24.2621 31.1591 24.5032 30.8379 24.9051 30.7576C25.0659 30.6773 25.307 30.6773 25.4678 30.6773H33.5059V28.8303H25.307C25.0659 28.8303 24.7444 28.8303 24.5032 28.9106C23.1367 29.0712 22.0918 30.1955 22.0918 31.5607C22.0918 32.6849 22.8152 34.0501 24.4228 34.2107C24.7444 34.2107 24.9855 34.291 25.307 34.2107H30.6926C30.7729 34.2107 31.0141 34.2107 31.0945 34.2107C31.5767 34.291 31.8983 34.6926 31.8983 35.0941C31.9787 35.5759 31.5767 35.9775 31.1748 36.0578Z" fill="#5F5F5F"/>
<path d="M79.0819 37.9048V28.8303H77.0724V35.6562L70.4008 28.8303H67.8286V37.9048H69.8381V31.0788L76.5901 37.9048H79.0819Z" fill="#5F5F5F"/>
<path d="M73.8572 60.4708C74.8218 60.4708 75.6256 61.2738 75.6256 62.2375C75.6256 63.2012 74.8218 64.0042 73.8572 64.0042C72.8927 64.0042 72.0889 63.2012 72.0889 62.2375C72.0889 61.7557 72.2496 61.3541 72.6515 60.9526C72.8927 60.6314 73.375 60.3905 73.8572 60.4708ZM73.8572 63.6027C74.2592 63.6027 74.5807 63.4421 74.8218 63.2012C75.063 62.9602 75.2237 62.5587 75.2237 62.2375C75.2237 61.5147 74.5807 60.8723 73.8572 60.9526C73.1338 60.9526 72.4908 61.595 72.4908 62.3178C72.4908 62.9602 73.0534 63.6027 73.8572 63.6027ZM73.1338 63.1208V61.3541C73.375 61.3541 73.5357 61.2738 73.7769 61.2738C74.0984 61.2738 74.5807 61.3541 74.5807 61.7557C74.5807 61.9966 74.4199 62.1572 74.1788 62.1572C74.3395 62.2375 74.4199 62.3981 74.5003 62.5587C74.5003 62.7193 74.5807 62.8799 74.6611 62.9602H74.2592C74.1788 62.7996 74.1788 62.639 74.0984 62.5587C74.018 62.3178 73.8572 62.3178 73.5357 62.3178V63.0405L73.1338 63.1208ZM73.5357 62.0769C73.8572 62.0769 74.1788 62.0769 74.1788 61.836C74.1788 61.6753 74.0984 61.595 73.7769 61.595C73.6965 61.595 73.6161 61.595 73.5357 61.595V62.0769Z" fill="#5F5F5F"/>
</svg>
