<svg width="225" height="67" viewBox="0 0 225 67" fill="none" xmlns="http://www.w3.org/2000/svg">
<rect width="224.133" height="66.5394" transform="translate(0.09375 0.000610352)" fill="white"/>
<g clip-path="url(#clip0_12_523)">
<path d="M3.89421 27.128L11.6132 40.9354L20.536 40.9586L28.1133 27.128H31.9138V24.6133H20.4888V27.128H23.7935L18.2699 37.1866L12.6754 27.128H16.6883V24.6133H0.09375V27.128H3.89421Z" fill="#5F5F5F"/>
<path d="M102.163 27.128V24.6367H117.459V27.128H113.659V38.4207H117.2C120.481 38.4207 122.629 36.2786 122.629 33.3914H125.155V40.9587H102.187V38.3974H106.034V27.1048H102.163V27.128Z" fill="#5F5F5F"/>
<path d="M65.0792 24.2641C57.4075 24.2641 53.3237 28.0361 53.3237 32.786C53.3237 37.5825 57.2422 41.4243 65.1264 41.4243C73.0106 41.4243 76.8819 37.5825 76.8819 32.786C76.8819 28.0594 72.7745 24.2641 65.0792 24.2641ZM65.0084 38.8398C62.1993 38.7932 60.9719 35.7431 61.0191 32.6929C61.0663 29.5495 62.6006 26.802 65.2208 26.8486C67.841 26.8952 69.2337 29.6892 69.1865 32.8326C69.1393 35.7896 67.8882 38.8864 65.0084 38.8398Z" fill="#5F5F5F"/>
<path d="M151.215 27.128L158.934 40.9354L167.857 40.9586L175.434 27.128H179.235V24.6133H167.81V27.128H171.114L165.591 37.1866L159.996 27.128H164.009V24.6133H147.415V27.128H151.215Z" fill="#5F5F5F"/>
<path d="M212.4 24.2641C204.729 24.2641 200.645 28.0361 200.645 32.786C200.645 37.5825 204.564 41.4243 212.448 41.4243C220.332 41.4243 224.203 37.5825 224.203 32.786C224.203 28.0594 220.096 24.2641 212.4 24.2641ZM212.33 38.8398C209.521 38.7932 208.293 35.7431 208.34 32.6929C208.388 29.5495 209.922 26.802 212.542 26.8486C215.162 26.8952 216.555 29.6892 216.508 32.8326C216.461 35.7896 215.21 38.8864 212.33 38.8398Z" fill="#5F5F5F"/>
</g>
<defs>
<clipPath id="clip0_12_523">
<rect width="224.133" height="17.1835" fill="white" transform="translate(0.09375 24.2408)"/>
</clipPath>
</defs>
</svg>
