<svg width="279" height="219" viewBox="0 0 279 219" fill="none" xmlns="http://www.w3.org/2000/svg">
<path opacity="0.1" d="M128.68 219V110.53C128.68 60.6 117.956 19.2783 96.5098 -13.4348C74.2053 -46.1479 42.0354 -67.6696 0 -78V-32.8044C25.7359 -25.9174 44.1801 -13.0044 55.3323 5.93478C66.4845 24.0131 72.9185 47.687 74.6342 76.9565H25.736V219H128.68ZM279 219V110.53C279 60.6 268.277 19.2783 246.83 -13.4348C224.526 -46.1479 192.356 -67.6696 150.32 -78V-32.8044C176.056 -25.9174 194.5 -13.0044 205.653 5.93478C216.805 24.0131 223.239 47.687 224.954 76.9565H176.056V219H279Z" fill="#1572D3"/>
</svg>
