<svg width="22" height="22" viewBox="0 0 22 22" fill="none" xmlns="http://www.w3.org/2000/svg">
<path d="M10.3274 1.36274C10.6026 0.805306 11.3974 0.805305 11.6726 1.36274L14.3522 6.79232C14.4615 7.01367 14.6726 7.1671 14.9169 7.2026L20.9088 8.07327C21.524 8.16266 21.7696 8.91864 21.3245 9.35254L16.9887 13.5789C16.8119 13.7512 16.7313 13.9994 16.773 14.2427L17.7965 20.2104C17.9016 20.8231 17.2585 21.2903 16.7083 21.001L11.349 18.1835C11.1305 18.0686 10.8695 18.0686 10.651 18.1835L5.29168 21.001C4.74146 21.2903 4.09839 20.8231 4.20347 20.2104L5.22701 14.2427C5.26874 13.9994 5.18807 13.7512 5.01131 13.5789L0.675535 9.35254C0.230397 8.91864 0.476029 8.16266 1.09119 8.07327L7.08309 7.2026C7.32737 7.1671 7.53854 7.01367 7.64779 6.79232L10.3274 1.36274Z" fill="#EFBF14"/>
</svg>
